<?xml version="1.0" standalone="no"?>
<!DOCTYPE svg PUBLIC "-//W3C//DTD SVG 20010904//EN"
 "http://www.w3.org/TR/2001/REC-SVG-20010904/DTD/svg10.dtd">
<svg version="1.0" xmlns="http://www.w3.org/2000/svg"
 width="1036.000000pt" height="921.000000pt" viewBox="0 0 1036.000000 921.000000"
 preserveAspectRatio="xMidYMid meet">
<metadata>
Created by potrace 1.15, written by Peter Selinger 2001-2017
</metadata>
<g transform="translate(0.000000,921.000000) scale(0.100000,-0.100000)"
fill="#000000" stroke="none">
<path d="M4016 6689 c-112 -16 -216 -82 -259 -163 -16 -31 -21 -58 -21 -111 1
-200 155 -311 383 -276 114 18 251 84 259 124 10 48 -49 61 -96 22 -53 -45
-121 -68 -207 -73 -129 -6 -187 34 -216 150 -34 141 54 245 218 256 120 8 162
-3 210 -55 37 -39 46 -44 80 -41 35 3 38 6 41 35 4 39 -22 66 -96 100 -82 39
-179 49 -296 32z"/>
<path d="M4671 6613 c-81 -94 -166 -307 -202 -506 -11 -60 -11 -70 4 -84 13
-13 23 -15 43 -7 22 8 31 26 69 141 71 215 91 243 170 243 63 0 126 -21 173
-56 118 -91 87 -210 -89 -339 -57 -41 -89 -71 -89 -83 0 -26 31 -52 61 -52 72
0 233 128 277 221 76 159 -52 333 -274 370 -41 7 -74 16 -74 20 0 3 18 30 41
58 46 58 47 89 4 109 -48 22 -71 15 -114 -35z"/>
<path d="M3460 6494 c-71 -19 -132 -56 -187 -111 -51 -50 -73 -96 -73 -150 0
-98 80 -130 270 -108 74 9 110 -9 110 -54 0 -56 -99 -118 -148 -92 -33 18 -60
13 -78 -14 -15 -23 -15 -27 0 -49 39 -61 159 -37 258 52 48 43 68 85 68 143 0
33 -6 47 -34 75 l-34 34 -126 0 c-113 0 -128 2 -146 20 -74 74 60 195 185 167
58 -14 121 49 82 81 -23 19 -90 22 -147 6z"/>
<path d="M4054 5926 c-28 -7 -86 -29 -128 -49 -285 -135 -637 -574 -743 -925
-21 -71 -26 -109 -27 -207 -1 -108 1 -125 23 -167 45 -88 135 -131 271 -131
90 1 164 26 263 89 167 108 395 375 555 650 l41 71 84 6 c144 10 243 42 267
87 8 15 6 21 -11 30 -15 9 -45 8 -122 -5 -113 -17 -172 -12 -163 14 100 307
101 416 1 499 -62 50 -194 66 -311 38z m244 -146 c12 -11 24 -33 28 -48 3 -15
7 -32 9 -39 13 -43 -42 -255 -75 -291 -40 -42 -129 -19 -210 55 -47 42 -70 86
-70 133 0 123 238 265 318 190z m-313 -399 c47 -41 130 -81 168 -81 15 0 30
-6 33 -14 6 -15 -72 -155 -142 -254 -68 -96 -180 -205 -243 -237 -32 -16 -78
-29 -112 -32 -48 -5 -59 -3 -78 16 -27 27 -27 86 -2 156 78 217 182 431 258
533 l25 33 27 -43 c15 -24 45 -58 66 -77z"/>
<path d="M5900 5925 c-218 -53 -458 -259 -674 -579 -149 -219 -226 -426 -226
-606 0 -145 34 -216 125 -260 58 -28 162 -41 233 -29 73 11 183 64 257 123
154 123 348 357 475 573 l65 110 80 6 c164 12 275 51 275 98 0 28 -36 32 -139
14 -80 -14 -161 -13 -161 2 0 3 16 57 35 121 62 203 58 299 -16 373 -65 65
-196 86 -329 54z m251 -151 c22 -23 24 -34 24 -112 0 -62 -7 -108 -23 -161
-38 -121 -79 -144 -177 -97 -87 42 -147 115 -147 180 0 47 15 77 63 124 91 89
210 119 260 66z m-361 -349 c41 -57 130 -110 223 -129 15 -4 27 -10 27 -14 0
-20 -134 -232 -195 -308 -111 -140 -225 -214 -329 -214 -59 0 -80 24 -78 90 1
42 40 165 62 195 4 6 15 35 25 65 20 63 85 189 159 308 57 92 47 92 106 7z"/>
<path d="M6680 5527 c-28 -14 -39 -59 -19 -83 6 -8 25 -14 41 -14 l30 0 -7
-48 c-21 -157 -27 -541 -9 -659 l6 -43 -44 6 c-27 4 -54 2 -67 -5 -24 -13 -28
-52 -8 -70 28 -23 142 -42 294 -49 267 -12 387 8 442 74 77 94 82 274 7 274
-30 0 -43 -16 -51 -65 -4 -22 -13 -63 -21 -91 -12 -44 -19 -53 -51 -67 -63
-28 -160 -38 -276 -28 -59 4 -109 10 -112 12 -2 3 -9 59 -16 124 -13 134 -7
409 12 548 13 94 19 101 69 72 53 -30 100 -14 100 35 0 34 -22 54 -83 74 -58
19 -201 21 -237 3z"/>
<path d="M3625 3653 c-76 -40 -105 -90 -105 -183 0 -143 100 -279 265 -360
232 -114 609 -140 961 -66 296 63 580 211 766 397 47 48 91 96 97 108 10 19 6
18 -55 -9 -211 -95 -455 -140 -760 -140 -282 0 -476 45 -789 185 -77 35 -158
68 -180 74 -58 16 -165 13 -200 -6z"/>
<path d="M3852 1584 c-84 -42 -153 -119 -202 -227 -37 -81 -47 -95 -74 -103
-40 -12 -47 -41 -12 -50 14 -3 26 -9 26 -13 0 -3 -20 -89 -45 -190 -85 -345
-133 -451 -229 -496 -39 -19 -65 -63 -44 -76 18 -12 24 -11 61 4 68 29 146
148 198 302 12 39 48 159 78 269 l56 198 71 18 c38 10 87 25 109 34 21 9 40
14 42 12 2 -2 -10 -32 -27 -65 -39 -78 -90 -230 -90 -269 0 -16 9 -40 19 -53
l20 -24 48 25 c26 14 90 67 142 118 51 50 95 92 97 92 2 0 -1 -11 -6 -25 -5
-13 -14 -53 -20 -87 -26 -150 46 -157 205 -23 l65 55 -6 -45 c-4 -27 -2 -56 6
-76 12 -29 16 -31 53 -26 46 6 122 54 205 132 61 56 109 121 99 132 -3 3 -38
-23 -77 -58 -86 -77 -175 -139 -201 -139 -15 0 -19 7 -19 35 0 69 93 321 186
507 48 96 53 131 18 136 -17 2 -28 -8 -48 -43 -34 -61 -149 -335 -172 -408
-15 -48 -29 -69 -78 -114 -80 -74 -135 -113 -159 -113 -18 0 -19 5 -14 58 6
60 35 156 69 228 24 51 21 88 -7 92 -15 2 -32 -16 -70 -75 -94 -147 -221 -283
-262 -283 -31 0 6 149 53 212 37 52 57 95 51 111 -9 23 -68 29 -138 13 -116
-25 -139 -27 -139 -8 0 30 57 139 96 182 39 43 100 80 132 80 37 0 59 51 26
64 -26 10 -37 7 -92 -20z"/>
<path d="M5114 1578 c-60 -111 -151 -330 -192 -459 -39 -123 -49 -189 -32
-230 12 -29 16 -31 50 -26 42 5 127 56 189 113 l41 36 0 -31 c0 -43 24 -97 48
-110 51 -27 159 1 256 68 l48 33 -7 -31 c-8 -39 16 -81 47 -81 33 0 82 36 146
106 l60 64 4 -55 c12 -139 89 -148 221 -26 49 46 54 43 36 -20 -9 -30 -9 -42
1 -54 24 -29 39 -15 86 78 51 103 114 195 168 246 31 30 38 33 60 23 20 -9 27
-8 39 6 21 24 26 44 15 65 -23 46 -97 3 -181 -104 -31 -41 -64 -83 -73 -94
-14 -19 -15 -17 -9 25 3 24 15 64 25 88 24 54 25 66 4 83 -26 22 -70 -35 -79
-102 -4 -30 -11 -63 -15 -74 -15 -39 -112 -145 -157 -172 -42 -24 -46 -25 -61
-9 -28 28 -21 154 12 241 41 105 41 102 14 110 -12 3 -33 11 -45 17 -12 6 -33
8 -48 4 -37 -9 -119 -88 -177 -171 -71 -101 -170 -178 -265 -205 -80 -24 -114
6 -98 86 6 32 9 35 31 30 61 -16 162 43 190 111 27 63 13 108 -38 126 -10 4
-18 11 -18 17 0 5 -12 10 -26 10 -33 0 -111 -81 -153 -159 -32 -60 -95 -121
-191 -186 -68 -46 -90 -46 -90 -1 0 69 94 324 187 509 47 95 52 130 16 135
-16 2 -26 -5 -39 -30z m694 -365 c5 -34 -54 -136 -120 -208 -61 -66 -98 -83
-98 -45 0 53 93 211 154 262 28 24 60 19 64 -9z"/>
<path d="M2661 1446 c-7 -8 -27 -17 -46 -20 -43 -8 -49 -42 -10 -52 14 -3 25
-8 25 -10 0 -17 -97 -351 -126 -435 -41 -121 -72 -172 -115 -194 -28 -15 -34
-15 -70 -1 -22 9 -47 16 -57 16 -56 0 -41 -63 19 -82 33 -9 46 -8 98 12 124
46 170 125 256 441 31 112 67 228 81 257 21 42 23 56 14 67 -16 19 -54 19 -69
1z"/>
<path d="M6521 1303 c-25 -31 -84 -212 -109 -331 -15 -73 -15 -84 -2 -92 8 -5
18 -10 22 -10 4 0 32 38 62 85 56 86 199 245 210 234 4 -4 -5 -46 -19 -94 -69
-238 16 -325 182 -186 55 45 58 46 59 24 1 -13 9 -34 18 -48 32 -49 109 -24
221 71 38 32 66 51 63 43 -4 -9 -10 -38 -13 -64 -7 -45 1 -64 27 -65 4 0 32
38 62 85 56 86 199 245 210 234 4 -4 -5 -46 -19 -94 -38 -133 -32 -207 20
-241 35 -23 86 -7 153 45 l50 40 8 -31 c22 -75 74 -58 198 64 l79 78 -6 -53
c-10 -80 -56 -256 -83 -313 -36 -77 -80 -132 -131 -164 -58 -37 -98 -38 -148
-4 -31 21 -43 24 -61 15 -13 -5 -28 -19 -34 -30 -16 -30 23 -51 108 -58 61 -5
76 -3 128 21 71 32 94 53 143 126 72 106 98 180 147 418 23 111 44 186 55 201
24 31 24 56 -1 81 -61 61 -233 -37 -334 -190 -85 -129 -194 -219 -235 -193
-41 25 -13 175 56 304 21 39 33 74 30 83 -11 27 -38 31 -56 9 -9 -11 -32 -29
-51 -41 -19 -11 -77 -64 -129 -116 -92 -94 -93 -95 -86 -59 11 61 56 163 79
178 23 17 16 39 -18 59 -27 17 -61 -33 -97 -141 -29 -87 -34 -96 -97 -154 -72
-66 -152 -112 -176 -103 -32 12 -10 93 74 267 38 80 41 91 27 104 -14 14 -17
14 -37 0 -39 -27 -90 -108 -90 -143 0 -52 -25 -96 -93 -165 -71 -72 -119 -99
-146 -82 -40 25 -13 177 55 302 39 70 40 111 4 111 -11 0 -20 -4 -20 -9 0 -6
-24 -26 -52 -45 -49 -32 -178 -154 -212 -201 -20 -27 -20 -7 0 63 21 72 49
128 71 140 16 9 16 11 0 36 -22 33 -40 33 -66 -1z m1557 -90 c2 -14 -3 -23
-17 -28 -12 -3 -35 -27 -53 -53 -43 -63 -136 -161 -170 -178 -25 -13 -28 -13
-29 3 -6 91 73 217 166 267 43 23 99 17 103 -11z"/>
<path d="M2905 1302 c-16 -8 -37 -18 -44 -22 -8 -4 -18 -17 -22 -31 -3 -13
-25 -53 -49 -88 -73 -110 -100 -227 -64 -279 18 -26 76 -30 129 -8 56 24 135
105 166 171 45 93 40 131 -29 239 -26 39 -41 42 -87 18z m69 -94 c25 -35 19
-79 -19 -156 -48 -95 -112 -147 -160 -128 -42 16 14 180 90 265 42 46 67 51
89 19z"/>
<path d="M3422 1308 c-22 -28 -42 -79 -42 -106 0 -33 -85 -181 -130 -226 -59
-60 -71 -18 -49 169 17 148 -6 207 -51 133 -18 -29 -20 -51 -20 -195 0 -89 3
-168 6 -177 3 -9 15 -16 25 -16 10 0 19 -2 19 -4 0 -13 -206 -279 -253 -327
-53 -55 -77 -103 -59 -121 15 -15 50 1 68 31 9 15 36 37 59 50 24 13 51 31 60
41 14 16 14 20 2 32 -18 16 -2 41 163 248 198 249 285 421 238 468 -15 15 -23
15 -36 0z"/>
</g>
</svg>
